<?xml version="1.0" encoding="utf-8"?>
<!-- Generator: Adobe Illustrator 20.0.0, SVG Export Plug-In . SVG Version: 6.00 Build 0)  -->
<svg version="1.1" id="Layer_1" xmlns="http://www.w3.org/2000/svg" xmlns:xlink="http://www.w3.org/1999/xlink" x="0px" y="0px"
	 viewBox="0 0 723 230.3" style="enable-background:new 0 0 723 230.3;" xml:space="preserve">
<style type="text/css">
	.st0{fill:#FFFFFF;}
</style>
<g>
	<path class="st0" d="M0,88.3c0-1,0-2,0-3c0.4-0.7,0.9-1.3,1.1-2c6-23.9,12-47.9,17.9-71.8c1.2-4.9,3.5-7.4,8.9-7.3
		c47.7,0.1,95.3,0.1,143,0.3c1.7,0,4,1.3,5.1,2.7c3.1,3.9,5.7,8.2,8.7,12.7c9.5-10,21.3-15.1,34.4-17.3c14.7-2.5,29.6-3.6,44.3-0.9
		c19.4,3.5,39.4,6.4,53.3,23.3c1.4-5.3,2.9-10.6,4.3-16c0.8-3.2,2.6-4.7,6-4.7c19.2,0.1,38.3,0,57.5,0.3c2,0,4.5,1.7,5.9,3.3
		c3.3,4.2,6.1,8.9,9.7,14.1c1.8-4.4,3.4-7.8,4.6-11.4c1.6-4.5,4.4-6.5,9.4-6.4c10.7,0.3,21.3,0.2,32,0.1c2.9,0,4.5,0.9,6,3.3
		c3.2,5.2,6.7,10.1,10.5,15.7c1.4-4.9,2.6-8.8,3.5-12.8c1-4.5,3.7-6.2,8.2-6.1c13.5,0.1,27,0.7,40.5-0.2c9.7-0.7,16.2,2,20,10.9
		c0.6,1.4,1.8,2.6,3,4.2c8-7.8,17.4-12.9,27.9-15.3c32.2-7.3,63.1-3.3,92.8,11.1c2.1,1,4.1,3,5.4,5c7,10.3,14.1,20.6,20.6,31.2
		c1.6,2.6,2.3,6.7,1.7,9.7c-2.6,12-6,23.9-8.7,35.8c-1.1,5-3.8,6.8-8.8,6.7c-9.3-0.2-18.6-0.1-28.2-0.1c9.1,14.5,17.9,28.5,26.9,43
		c-0.2,0.1,0.6-0.1,1.3-0.3c12.5-3.1,22.3,0.6,29.4,11.2c6,8.9,11.6,18.3,18,26.9c15.1,20,3.7,42.5-15.7,46.1
		c-0.1,0-0.3,0.2-0.4,0.3c-3,0-6,0-9,0c-5-3.3-11.9-5.4-14.7-10c-5.1-8.6-11.5-11.4-20.7-9.9c-0.8,0.1-1.7-0.2-2.5,0.1
		c-2.1,0.7-4.6,1.1-6.1,2.4c-8.3,7.3-17.7,12.2-28.5,14.4c-5.2,1.1-10.3,2-15.5,3c-8.7,0-17.3,0-26,0c-1.1-0.3-2.2-0.9-3.3-1
		c-14-1.5-28.1-4.2-40-11.5c-12-7.4-24.1-7.9-37.1-7.4c-1.7,0.1-3.4,0.3-5,0c-9-1.7-14.3,1.7-16.2,10.8c-0.9,4.3-4.2,6-8.6,5.9
		c-9.8-0.2-19.6-0.1-29.5-0.1c-19.8-0.1-14.1,2.3-24.6-12.9c-1.8-2.6-3.6-3.8-6.9-3.7c-10.2,0.1-10.2,0-14.2,9.4
		c-0.1,0.3-0.3,0.6-0.4,0.9c-1.4,5-4.9,6.6-9.8,6.5c-10.2-0.2-20.4-1-30.4,0.1c-11.2,1.2-18.9-2-23.1-12.6c-0.2-0.5-0.4-1-0.8-1.2
		c-1.7-1-3.4-2.7-5.2-2.8c-7.1-0.3-14.3-0.3-21.5,0c-1.8,0.1-3.9,1-5.2,2.2c-7.4,6.5-15.8,11.1-25.2,13.7
		c-5.6,1.5-11.2,2.6-16.9,3.9c-8.3,0-16.7,0-25,0c-1.6-0.3-3.2-0.9-4.8-1c-14-1.3-28.3-3.4-40.2-10.7c-12.6-7.8-25.6-8.8-39.4-8.2
		c-5.8,0.3-11.7,0-17.5,0c-9.8,0-10.1-0.1-12,9.4c-1.1,5.3-3.7,7.1-8.9,7.1c-17.2-0.2-34.3-0.8-51.4,0.2
		c-10.1,0.6-15.9-2.8-20.7-11.4c-4.9-8.7-11.1-16.7-17.4-25.9c1.9-7.8,3.9-17.1,6.6-26.1c0.8-2.7,3.5-4.8,5.4-7.1
		c2.4-2.8,6.1-5.2,7.2-8.4c3-8.3,4.8-17,7.3-26.1c-5.3,0-9.8,0.3-14.2-0.1c-1.8-0.2-4-1.3-5.1-2.8c-6.2-8.9-12-18-18.2-26.9
		C3.6,90.6,1.6,89.6,0,88.3z M444.4,10.4c-10.4,0-20.1,0.2-29.7-0.1c-3.7-0.1-5.6,1.2-7,4.7c-13.9,35.7-27.9,71.3-41.9,107
		c-2.9-0.9-4.4-2.7-3.4-6.5c0.9-3.3,1.1-6.9,1.5-10.3c1.8-18.2,3.3-36.4,5.3-54.6c0.4-3.8,1.3-8.3,3.6-11.2c6.8-8.5,5.9-19,9.6-28.1
		c-1.1-0.5-1.4-0.8-1.7-0.8c-17.7-0.1-35.3-0.2-53,0c-1.3,0-3.2,2.1-3.6,3.6c-1.6,5-2.6,10.3-4,15.4c-1.1,3.9-1.6,7.4,1.6,11
		c1.6,1.7,2.2,4.9,2.2,7.4c-0.2,11.6-0.5,23.3-1.2,34.9c-1.8,30.1-3.9,60.1-5.7,90.2c-0.3,5.1,0,10.2,0,15.6c0.4,0.1,1.2,0.4,2,0.4
		c13,0.1,26,0,39,0.2c3.3,0,4.2-1.9,5.1-4.3c7.3-17.6,14.7-35.2,21.9-52.9c5.4-13.2,10.5-26.6,16.4-41.5c1.2,3.5,2.7,5.7,2.6,7.9
		c-0.7,18-1.7,35.9-2.6,53.9c-0.6,12.1-1.1,24.2-1.7,36.6c2.3,0.1,3.9,0.2,5.5,0.3c11.7,0,23.3-0.2,35,0.1c4.4,0.1,6.4-1.5,8-5.5
		c18.5-44.1,37.1-88,55.8-132c1.7-4.1,3.7-8.4,6.7-11.5c8-8.4,7-19.5,11-29.7c-17,0-32.8-0.1-48.6,0.1c-1.1,0-2.8,1.7-3.1,2.9
		c-2,6.7-3.6,13.4-5.3,20.2c-0.2,1-0.3,2.6,0.3,3.1c5.7,4.7,4.4,10.2,2.2,15.9c-6,15.5-12,30.9-18.1,46.3c-2.9,7.3-5.7,14.7-8.5,22
		c-5.2-0.9-3.4-4.6-3.3-7.2c0.4-8.6,1.2-17.3,1.8-25.9c0.9-11.6,1.8-23.2,2.6-34.8C442.6,39.3,443.5,25.3,444.4,10.4z M160.1,129.5
		c-3.5,13.6-6.7,26.8-10.5,39.8c-1.3,4.5-0.2,6.6,3.7,8.6c24.4,12.6,50.4,16.7,77.3,13.4c31.9-3.9,49.4-19.8,54.5-50.9
		c4-24.3-1.9-44.5-29.2-56.3c-7.6-3.3-15.5-6-23-9.3c-12.4-5.5-15.5-20.9-6.6-31.1c5-5.7,15-8.2,21.4-5.2c6.2,2.9,9,10.2,7.4,18.9
		c-0.5,2.4-0.8,4.9-1.3,7.9c12.6,0,24.9-0.2,37.1,0.1c3.7,0.1,4.9-1.4,5.7-4.6c2.7-11.1,5.3-22.3,8.5-33.2c1.3-4.5-0.1-6.1-3.9-7.9
		C275,7.4,247.6,4.5,218.8,9c-38.5,6-51.9,42.2-44.1,72.2c3.6,13.9,14.5,21.5,26.8,27c7.7,3.4,15.8,6.1,23.6,9.2
		c6.1,2.5,10.5,6.9,11.5,13.4c1.6,10.5-1.1,20-9.7,26.8c-5.8,4.5-12.5,5.3-19.2,1.9c-6.4-3.3-7.7-9.2-6.7-15.8
		c0.7-4.7,1.4-9.3,2.2-14.2C188.4,129.5,174.5,129.5,160.1,129.5z M606.4,65.3c13.2,0,26.2,0.1,39.1-0.2c1.2,0,2.9-2.4,3.3-3.9
		c3-11.4,5.6-22.9,8.7-34.2c1-3.8-0.2-5.4-3.4-7c-27.2-12.9-55.8-16.6-85-10.6c-39.7,8.2-48.3,42.3-42.8,70
		c2.4,12.2,10.7,20.6,21.8,25.7c8.9,4.1,18.1,7.5,27.1,11.2c6.9,2.8,12.3,7.1,13.5,14.8c1.3,8.3-0.5,16.3-5.8,23
		c-5,6.4-12,8.4-19.7,6.8c-8.3-1.7-12-9.8-9.9-20.4c0.7-3.5,1.3-7.1,2.1-11.2c-14.2,0-27.6-0.1-41.1,0.2c-1.2,0-2.9,2.3-3.3,3.8
		c-3.2,12.2-5.9,24.5-9.3,36.6c-1.2,4.2,0,6,3.5,7.8c22.7,11.8,47,16.4,72.4,14.2c8.3-0.7,17-2.2,24.7-5.2
		c22.9-8.9,33.4-27.1,35.8-50.8c1.7-16.4-1.1-31.7-14.6-42.3c-7.3-5.7-16.4-9.2-24.8-13.4c-5.6-2.8-11.9-4.5-17.1-7.8
		c-7.1-4.4-9.5-13.7-6.8-21.7c2.9-8.6,10.1-13.7,18.9-13.5c9.3,0.3,14.6,5.5,14.3,14.8C607.8,56.2,607,60.3,606.4,65.3z M5.6,84.2
		c10.3,0,19.6,0.1,28.9-0.2c1.2,0,3.1-2.1,3.5-3.6c2.5-9.3,4.8-18.6,7.1-27.9C47.9,41,55.6,36.9,66.8,41.1
		c-8.7,35-17.3,70.1-26,105.1c-1.8,7.1-5.1,13.3-12.2,16.8c-0.8,0.4-1.8,1.2-2,2c-2,7.8-3.9,15.6-6,24.1c21.1,0,41.4,0,61.7-0.1
		c1,0,2.5-1.5,2.8-2.6c1.8-6.7,3.4-13.5,5-20.3c0.2-1,0.1-2.7-0.5-3.1c-7.1-4.3-6.1-10.9-4.7-17.3c2.5-11.7,5.3-23.2,8.2-34.8
		c5.3-21.7,10.8-43.4,16.1-65.2c1-4,2.8-6.6,7.4-6.3c5.8,0.3,9.8,4,9.3,9.9c-0.3,4.6-1.5,9.1-2.5,13.7c-1.5,7-3.2,14-4.9,21.4
		c9.5,0,18-0.2,26.4,0.1c4.1,0.2,5.4-1.5,6.3-5.2c2-8.7,4.4-17.4,6.5-26c3.5-13.9,6.9-27.9,10.4-42.2c-1.6-0.2-2.7-0.5-3.8-0.5
		c-45.3,0-90.6,0-136-0.2c-3.5,0-4.8,1.3-5.6,4.7c-3.1,13.4-6.5,26.7-9.9,40.1C10.5,64.6,8.1,74,5.6,84.2z M694.1,169.7
		c0-11.6-7-18.5-18.7-18.5c-12.7,0.1-22.4,10-22.4,23c0,10.8,7.5,18.1,18.8,18C684,192.3,694.1,182.1,694.1,169.7z"/>
</g>
</svg>
