<?xml version="1.0" encoding="utf-8"?>
<!-- Generator: Adobe Illustrator 20.0.0, SVG Export Plug-In . SVG Version: 6.00 Build 0)  -->
<svg version="1.1" id="Layer_1" xmlns="http://www.w3.org/2000/svg" xmlns:xlink="http://www.w3.org/1999/xlink" x="0px" y="0px"
	 viewBox="0 0 960 560" style="enable-background:new 0 0 960 560;" xml:space="preserve">
<style type="text/css">
	.st0{fill:none;stroke:#FFFFFF;stroke-width:4;stroke-miterlimit:10;}
</style>
<path class="st0" d="M432,301.9V312c0,0.8,0.7,1.5,1.5,1.5h16.8c0.3,0,0.6-0.1,0.8-0.2c22.1-14.3,39.7-2.2,42.5-0.1
	c0.3,0.2,0.6,0.3,0.9,0.3h16c0.8,0,1.5-0.7,1.5-1.5v-8.4c0-0.5-0.3-1-0.7-1.3c-33.9-20.3-8.8-25.1-7.4-25.3c0,0,0.1,0,0.1,0
	c35.9-3.2,45.8-17,48.3-22.4c0.5-1-0.3-2.1-1.4-2.1h-8.7c-0.3,0-0.7,0.1-1,0.3c-1.5,1.1-3.2,0.4-3.8-0.1c-0.2-0.1-0.5-0.2-0.8-0.2
	h-26c-0.8,0-1.5,0.7-1.5,1.5v0.5h-1c0-3.6-4.2-4.1-6.5-4.1c-0.8,0-1.5,0.7-1.5,1.5V262c0,0.8-0.7,1.5-1.5,1.5l0,0
	c-0.8,0-1.5-0.7-1.5-1.5v-13c0-0.8-0.7-1.5-1.5-1.5h-87.9c-1.2,0-1.9,1.3-1.2,2.3c2.6,3.8,9,10.9,20.9,10.9
	c16.2,0,23.2,12.1,23.5,21.1c0.2,8.5-9.6,17.6-17.4,18.5C432.6,300.5,432,301.1,432,301.9z"/>
</svg>
